<svg xmlns="http://www.w3.org/2000/svg" fill="none" stroke="currentColor" stroke-width="3" viewBox="0 0 64 64"><path d="M48.61 56.07A16.61 16.61 0 0 0 32 39.45h0A16.61 16.61 0 0 0 15.39 56.07ZM39.41 28a8.11 8.11 0 0 1-8.25 8.1 8.28 8.28 0 0 1-7.95-8.37V16.45a.06.06 0 0 1 .05-.06 60.56 60.56 0 0 1 8.27-.68 54.93 54.93 0 0 1 7.91.68.06.06 0 0 1 .06.06Z"/><path d="m23.21 20.14-8.27-3.8a.08.08 0 0 1 0-.13L31.32 8.39h.06l16.33 7.74a.07.07 0 0 1 0 .12L39.5 20.14M23.21 24.35H20.89s-2 0-2 3.1c0 2.86 2 2.86 2 2.86l2.72 0M39.41 24.71h2.32s2 0 2 3.09c0 2.86-2 2.86-2 2.86H39"/><path d="M46.85 33.15 46.85 16.72"/><circle cx="46.85" cy="35.28" r="2.13"/><path d="M39.5,23a42.89,42.89,0,0,0-7.95-.69,40.85,40.85,0,0,0-8.34.69"/></svg>